<svg width="22" height="22" viewBox="0 0 22 22" fill="none" xmlns="http://www.w3.org/2000/svg">
<path d="M10.9648 5.7998C13.9179 5.7998 16.3554 8.2373 16.3554 11.1904C16.3554 14.1904 13.9179 16.5811 10.9648 16.5811C7.96476 16.5811 5.57414 14.1904 5.57414 11.1904C5.57414 8.2373 7.96476 5.7998 10.9648 5.7998ZM10.9648 14.7061C12.8866 14.7061 14.4335 13.1592 14.4335 11.1904C14.4335 9.26855 12.8866 7.72168 10.9648 7.72168C8.99601 7.72168 7.44914 9.26855 7.44914 11.1904C7.44914 13.1592 9.04289 14.7061 10.9648 14.7061ZM17.8085 5.6123C17.8085 6.31543 17.246 6.87793 16.5429 6.87793C15.8398 6.87793 15.2773 6.31543 15.2773 5.6123C15.2773 4.90918 15.8398 4.34668 16.5429 4.34668C17.246 4.34668 17.8085 4.90918 17.8085 5.6123ZM21.371 6.87793C21.4648 8.6123 21.4648 13.8154 21.371 15.5498C21.2773 17.2373 20.9023 18.6904 19.6835 19.9561C18.4648 21.1748 16.9648 21.5498 15.2773 21.6436C13.5429 21.7373 8.33976 21.7373 6.60539 21.6436C4.91789 21.5498 3.46476 21.1748 2.19914 19.9561C0.980386 18.6904 0.605386 17.2373 0.511636 15.5498C0.417886 13.8154 0.417886 8.6123 0.511636 6.87793C0.605386 5.19043 0.980386 3.69043 2.19914 2.47168C3.46476 1.25293 4.91789 0.87793 6.60539 0.78418C8.33976 0.69043 13.5429 0.69043 15.2773 0.78418C16.9648 0.87793 18.4648 1.25293 19.6835 2.47168C20.9023 3.69043 21.2773 5.19043 21.371 6.87793ZM19.121 17.3779C19.6835 16.0186 19.5429 12.7373 19.5429 11.1904C19.5429 9.69043 19.6835 6.40918 19.121 5.00293C18.746 4.1123 18.0429 3.3623 17.1523 3.03418C15.746 2.47168 12.4648 2.6123 10.9648 2.6123C9.41789 2.6123 6.13664 2.47168 4.77726 3.03418C3.83976 3.40918 3.13664 4.1123 2.76164 5.00293C2.19914 6.40918 2.33976 9.69043 2.33976 11.1904C2.33976 12.7373 2.19914 16.0186 2.76164 17.3779C3.13664 18.3154 3.83976 19.0186 4.77726 19.3936C6.13664 19.9561 9.41789 19.8154 10.9648 19.8154C12.4648 19.8154 15.746 19.9561 17.1523 19.3936C18.0429 19.0186 18.7929 18.3154 19.121 17.3779Z" fill="black"/>
</svg>
