<svg width="24" height="24" viewBox="0 0 24 24" fill="none" xmlns="http://www.w3.org/2000/svg">
<path d="M23.4117 12.1904C23.4117 18.6123 18.2086 23.8154 11.7867 23.8154C10.568 23.8154 9.39611 23.6748 8.31798 23.2998C8.78673 22.5498 9.48986 21.2842 9.77111 20.2529C9.91173 19.7373 10.4742 17.4873 10.4742 17.4873C10.8492 18.2373 11.9742 18.8467 13.1461 18.8467C16.6617 18.8467 19.193 15.6123 19.193 11.6279C19.193 7.78418 16.0524 4.87793 12.0211 4.87793C7.00548 4.87793 4.33361 8.25293 4.33361 11.9092C4.33361 13.6436 5.22423 15.7529 6.67736 16.4561C6.91173 16.5498 7.05236 16.5029 7.09923 16.2686C7.09923 16.1279 7.33361 15.3311 7.42736 14.9561C7.42736 14.8623 7.42736 14.7217 7.33361 14.6279C6.86486 14.0654 6.48986 12.9873 6.48986 11.9561C6.48986 9.4248 8.41173 6.94043 11.7399 6.94043C14.5524 6.94043 16.568 8.8623 16.568 11.6748C16.568 14.8154 14.9742 16.9717 12.9117 16.9717C11.7867 16.9717 10.943 16.0342 11.1774 14.9092C11.5055 13.5029 12.1617 12.0029 12.1617 11.0186C12.1617 10.1279 11.693 9.37793 10.7086 9.37793C9.53673 9.37793 8.59923 10.5967 8.59923 12.1904C8.59923 13.2217 8.92736 13.9248 8.92736 13.9248C8.92736 13.9248 7.80236 18.7998 7.56798 19.6904C7.33361 20.7217 7.42736 22.1279 7.52111 23.0186C3.20861 21.3311 0.161734 17.1592 0.161734 12.1904C0.161734 5.76855 5.36486 0.56543 11.7867 0.56543C18.2086 0.56543 23.4117 5.76855 23.4117 12.1904Z" fill="black"/>
</svg>
