<svg width="26" height="19" viewBox="0 0 26 19" fill="none" xmlns="http://www.w3.org/2000/svg">
<path d="M25.4078 3.0498C25.9703 5.01855 25.9703 9.2373 25.9703 9.2373C25.9703 9.2373 25.9703 13.4092 25.4078 15.4248C25.1266 16.5498 24.236 17.3936 23.1578 17.6748C21.1422 18.1904 13.1735 18.1904 13.1735 18.1904C13.1735 18.1904 5.15783 18.1904 3.1422 17.6748C2.06408 17.3936 1.17345 16.5498 0.892202 15.4248C0.329702 13.4092 0.329702 9.2373 0.329702 9.2373C0.329702 9.2373 0.329702 5.01855 0.892202 3.0498C1.17345 1.9248 2.06408 1.03418 3.1422 0.75293C5.15783 0.19043 13.1735 0.19043 13.1735 0.19043C13.1735 0.19043 21.1422 0.19043 23.1578 0.75293C24.236 1.03418 25.1266 1.9248 25.4078 3.0498ZM10.5485 13.0342L17.2047 9.2373L10.5485 5.44043V13.0342Z" fill="black"/>
</svg>
